# xmcd
#
# Track frame offsets: 
#        150
#        8060
#        27584
#        48830
#        71413
#        87187
#        103680
#        130280
#        149401
#        167887
#        189819
#        204000
#
# Disc length: 3076 seconds
#
# Revision: 1
# Processed by: cddbd v1.5.2PL0 Copyright (c) Steve Scherf et al.
# Submitted via: ExactAudioCopy v0.99pb4
#
DISCID=990c020c
DTITLE=Omar and The Howlers - Big Delta
DYEAR=2001
DGENRE=Blues
TTITLE0=Linin' Track
TTITLE1=Monkey Land
TTITLE2=Muddy Springs Road
TTITLE3=Life Without End
TTITLE4=Bad Seed
TTITLE5=Wall Of Pride
TTITLE6=Pushin' Fire
TTITLE7=Mississippi Queen
TTITLE8=Mystery Walk
TTITLE9=Low Down Dirty Blues
TTITLE10=Caveman Rock
TTITLE11=Conversation Mambo
EXTD=Label: Provogue Records\nPRD 7132 2
EXTT0=
EXTT1=
EXTT2=
EXTT3=
EXTT4=
EXTT5=
EXTT6=
EXTT7=
EXTT8=
EXTT9=
EXTT10=
EXTT11=
PLAYORDER=
